ffmpeg version 4.2.7-0ubuntu0.1 Copyright (c) 2000-2022 the FFmpeg developers
  built with gcc 9 (Ubuntu 9.4.0-1ubuntu1~20.04.1)
  configuration: --prefix=/usr --extra-version=0ubuntu0.1 --toolchain=hardened --libdir=/usr/lib/x86_64-linux-gnu --incdir=/usr/include/x86_64-linux-gnu --arch=amd64 --enable-gpl --disable-stripping --enable-avresample --disable-filter=resample --enable-avisynth --enable-gnutls --enable-ladspa --enable-libaom --enable-libass --enable-libbluray --enable-libbs2b --enable-libcaca --enable-libcdio --enable-libcodec2 --enable-libflite --enable-libfontconfig --enable-libfreetype --enable-libfribidi --enable-libgme --enable-libgsm --enable-libjack --enable-libmp3lame --enable-libmysofa --enable-libopenjpeg --enable-libopenmpt --enable-libopus --enable-libpulse --enable-librsvg --enable-librubberband --enable-libshine --enable-libsnappy --enable-libsoxr --enable-libspeex --enable-libssh --enable-libtheora --enable-libtwolame --enable-libvidstab --enable-libvorbis --enable-libvpx --enable-libwavpack --enable-libwebp --enable-libx265 --enable-libxml2 --enable-libxvid --enable-libzmq --enable-libzvbi --enable-lv2 --enable-omx --enable-openal --enable-opencl --enable-opengl --enable-sdl2 --enable-libdc1394 --enable-libdrm --enable-libiec61883 --enable-nvenc --enable-chromaprint --enable-frei0r --enable-libx264 --enable-shared
  libavutil      56. 31.100 / 56. 31.100
  libavcodec     58. 54.100 / 58. 54.100
  libavformat    58. 29.100 / 58. 29.100
  libavdevice    58.  8.100 / 58.  8.100
  libavfilter     7. 57.100 /  7. 57.100
  libavresample   4.  0.  0 /  4.  0.  0
  libswscale      5.  5.100 /  5.  5.100
  libswresample   3.  5.100 /  3.  5.100
  libpostproc    55.  5.100 / 55.  5.100
Input #0, video4linux2,v4l2, from '/dev/video0':
  Duration: N/A, start: 20217.887747, bitrate: 192000 kb/s
    Stream #0:0: Video: rawvideo (YUY2 / 0x32595559), yuyv422, 800x600, 192000 kb/s, 25 fps, 25 tbr, 1000k tbn, 1000k tbc
Stream mapping:
  Stream #0:0 -> #0:0 (rawvideo (native) -> mjpeg (native))
Press [q] to stop, [?] for help
[swscaler @ 0x559e3cab1f80] deprecated pixel format used, make sure you did set range correctly
Output #0, image2pipe, to 'pipe:':
  Metadata:
    encoder         : Lavf58.29.100
    Stream #0:0: Video: mjpeg, yuvj422p(pc), 800x600, q=2-31, 200 kb/s, 1 fps, 1 tbn, 1 tbc
    Metadata:
      encoder         : Lavc58.54.100 mjpeg
    Side data:
      cpb: bitrate max/min/avg: 0/0/200000 buffer size: 0 vbv_delay: -1
frame=    1 fps=0.0 q=4.8 size=      26kB time=00:00:01.00 bitrate= 217.0kbits/s speed=1.99x    frame=    1 fps=1.0 q=4.8 size=      26kB time=00:00:01.00 bitrate= 217.0kbits/s speed=0.993x    frame=    2 fps=1.3 q=2.8 size=      70kB time=00:00:02.00 bitrate= 284.9kbits/s speed=1.32x    frame=    2 fps=1.0 q=2.8 size=      70kB time=00:00:02.00 bitrate= 284.9kbits/s speed=0.992x    frame=    3 fps=1.2 q=1.6 size=     135kB time=00:00:03.00 bitrate= 369.0kbits/s speed=1.19x    frame=    3 fps=1.0 q=1.6 size=     135kB time=00:00:03.00 bitrate= 369.0kbits/s speed=0.993x    frame=    4 fps=1.1 q=1.6 size=     201kB time=00:00:04.00 bitrate= 411.6kbits/s speed=1.13x    frame=    4 fps=1.0 q=1.6 size=     201kB time=00:00:04.00 bitrate= 411.6kbits/s speed=0.992x    frame=    5 fps=1.2 q=1.6 Lsize=     267kB time=00:00:05.00 bitrate= 436.9kbits/s speed=1.15x    
video:267kB audio:0kB subtitle:0kB other streams:0kB global headers:0kB muxing overhead: 0.000000%
